<svg width="54" height="46" viewBox="0 0 54 46" fill="none" xmlns="http://www.w3.org/2000/svg">
<path d="M54 36.727C54 41.8381 50.2373 46 45.6164 46H0.00195312V9.27302C0.00195312 4.1619 3.76465 0 8.38551 0H54V36.727Z" fill="white"/>
<path d="M38.4141 27.2262H41.9179C42.0181 27.2262 42.2516 27.1898 42.3518 27.1898C43.0192 27.044 43.5865 26.3883 43.5865 25.4775C43.5865 24.6032 43.0192 23.9475 42.3518 23.7653C42.2516 23.7289 42.0514 23.7289 41.9179 23.7289H38.4141V27.2262Z" fill="url(#paint0_linear)"/>
<path d="M41.5169 3.07288C38.1799 3.07288 35.4435 6.02373 35.4435 9.70319V16.5885H44.0197C44.2199 16.5885 44.4535 16.5885 44.6204 16.625C46.5558 16.7342 47.9908 17.8272 47.9908 19.7215C47.9908 21.2152 47.023 22.4902 45.221 22.7452V22.8181C47.1899 22.9638 48.6915 24.166 48.6915 26.024C48.6915 28.0276 47.023 29.3391 44.8206 29.3391H35.4102V42.8184H44.32C47.657 42.8184 50.3934 39.8675 50.3934 36.188V3.07288L41.5169 3.07288Z" fill="url(#paint1_linear)"/>
<path d="M43.1527 20.1587C43.1527 19.2844 42.5854 18.7015 41.918 18.5922C41.8513 18.5922 41.6844 18.5558 41.5843 18.5558H38.4141V21.7617H41.5843C41.6844 21.7617 41.8846 21.7617 41.918 21.7252C42.5854 21.6159 43.1527 21.033 43.1527 20.1587Z" fill="url(#paint2_linear)"/>
<path d="M8.79064 3C5.43905 3 2.69074 5.97248 2.69074 9.6789V26.156C4.40005 27.0734 6.1764 27.6606 7.95274 27.6606C10.0642 27.6606 11.2038 26.2661 11.2038 24.3578V16.578H16.4323V24.3211C16.4323 27.3303 14.723 29.789 8.9247 29.789C5.40553 29.789 2.65723 28.945 2.65723 28.945V43H11.606C14.9576 43 17.7059 40.0275 17.7059 36.3211V3L8.79064 3Z" fill="url(#paint3_linear)"/>
<path d="M25.5765 3C22.2249 3 19.4766 5.96703 19.4766 9.66667V18.3846C21.0183 16.956 23.6996 16.0403 28.0231 16.2601C30.3357 16.37 32.8159 17.0659 32.8159 17.0659V19.8864C31.5758 19.1905 30.1011 18.5678 28.1907 18.4212C24.9061 18.1648 22.9287 19.9231 22.9287 23C22.9287 26.1136 24.9061 27.8718 28.1907 27.5788C30.1011 27.4322 31.5758 26.7729 32.8159 26.1136V28.9341C32.8159 28.9341 30.3692 29.63 28.0231 29.7399C23.6996 29.9597 21.0183 29.044 19.4766 27.6154V43H28.4253C31.7769 43 34.5252 40.033 34.5252 36.3333V3L25.5765 3Z" fill="url(#paint4_linear)"/>
<defs>
<linearGradient id="paint0_linear" x1="35.4385" y1="30.5516" x2="50.4343" y2="30.5516" gradientUnits="userSpaceOnUse">
<stop stop-color="#007940"/>
<stop offset="0.2285" stop-color="#00873F"/>
<stop offset="0.7433" stop-color="#40A737"/>
<stop offset="1" stop-color="#5CB531"/>
</linearGradient>
<linearGradient id="paint1_linear" x1="35.4375" y1="42.8205" x2="50.4344" y2="42.8205" gradientUnits="userSpaceOnUse">
<stop stop-color="#007940"/>
<stop offset="0.2285" stop-color="#00873F"/>
<stop offset="0.7433" stop-color="#40A737"/>
<stop offset="1" stop-color="#5CB531"/>
</linearGradient>
<linearGradient id="paint2_linear" x1="35.4381" y1="25.227" x2="50.4347" y2="25.227" gradientUnits="userSpaceOnUse">
<stop stop-color="#007940"/>
<stop offset="0.2285" stop-color="#00873F"/>
<stop offset="0.7433" stop-color="#40A737"/>
<stop offset="1" stop-color="#5CB531"/>
</linearGradient>
<linearGradient id="paint3_linear" x1="2.68365" y1="43.3288" x2="17.978" y2="43.3288" gradientUnits="userSpaceOnUse">
<stop stop-color="#1F286F"/>
<stop offset="0.4751" stop-color="#004E94"/>
<stop offset="0.8261" stop-color="#0066B1"/>
<stop offset="1" stop-color="#006FBC"/>
</linearGradient>
<linearGradient id="paint4_linear" x1="19.3899" y1="42.7075" x2="34.2443" y2="42.7075" gradientUnits="userSpaceOnUse">
<stop stop-color="#6C2C2F"/>
<stop offset="0.1735" stop-color="#882730"/>
<stop offset="0.5731" stop-color="#BE1833"/>
<stop offset="0.8585" stop-color="#DC0436"/>
<stop offset="1" stop-color="#E60039"/>
</linearGradient>
</defs>
</svg>
