<svg width="57" height="44" viewBox="0 0 57 44" fill="none" xmlns="http://www.w3.org/2000/svg">
<g id="mastercardvisa_creditcard_logo">
<g id="Group">
<path id="Shape" fill-rule="evenodd" clip-rule="evenodd" d="M56.1771 42.6743C56.1184 42.6511 56.0575 42.6395 55.991 42.6395C55.9233 42.6395 55.8613 42.6511 55.8026 42.6743C55.7439 42.6963 55.6932 42.7279 55.6503 42.7679C55.6074 42.8068 55.5736 42.8531 55.5488 42.9068C55.524 42.9594 55.5116 43.0162 55.5116 43.0762C55.5116 43.1361 55.524 43.193 55.5488 43.2456C55.5736 43.2982 55.6074 43.3445 55.6503 43.3845C55.6932 43.4234 55.7439 43.4549 55.8026 43.4781C55.8613 43.5012 55.9233 43.5128 55.991 43.5128C56.0575 43.5128 56.1184 43.5012 56.1771 43.4781C56.2346 43.4549 56.2843 43.4234 56.3283 43.3845C56.3711 43.3445 56.405 43.2982 56.4298 43.2456C56.4546 43.193 56.467 43.1361 56.467 43.0762C56.467 43.0162 56.4546 42.9594 56.4298 42.9068C56.405 42.8531 56.3711 42.8068 56.3283 42.7679C56.2843 42.7279 56.2346 42.6963 56.1771 42.6743ZM55.991 43.417C56.0417 43.417 56.0891 43.4075 56.132 43.3896C56.176 43.3718 56.2143 43.3476 56.247 43.317C56.2798 43.2865 56.3057 43.2508 56.3249 43.2087C56.3429 43.1676 56.3531 43.1234 56.3531 43.0761C56.3531 43.0288 56.3429 42.9846 56.3249 42.9435C56.3057 42.9025 56.2798 42.8657 56.247 42.8352C56.2143 42.8046 56.176 42.7804 56.132 42.7626C56.0891 42.7457 56.0417 42.7373 55.991 42.7373C55.9402 42.7373 55.8917 42.7457 55.8477 42.7626C55.8026 42.7804 55.7631 42.8046 55.7304 42.8352C55.6977 42.8657 55.6717 42.9025 55.6537 42.9435C55.6345 42.9846 55.6255 43.0288 55.6255 43.0761C55.6255 43.1234 55.6345 43.1676 55.6537 43.2087C55.6717 43.2508 55.6977 43.2865 55.7304 43.317C55.7631 43.3476 55.8026 43.3718 55.8477 43.3896C55.8917 43.4075 55.9402 43.417 55.991 43.417ZM56.1481 42.9068C56.1177 42.8836 56.0748 42.872 56.0195 42.872H55.8187V43.2771H55.9112V43.1256H55.9541L56.0861 43.2771H56.1966L56.0545 43.1246C56.0996 43.1193 56.1335 43.1056 56.1571 43.0846C56.182 43.0625 56.1932 43.0351 56.1932 43.0015C56.1932 42.9615 56.1786 42.9299 56.1481 42.9068ZM55.9109 43.0561V42.9478H56.0181C56.0418 42.9478 56.0621 42.952 56.0767 42.9614C56.0903 42.9699 56.0982 42.9835 56.0982 43.0014C56.0982 43.0193 56.0903 43.034 56.0767 43.0425C56.0621 43.0509 56.0418 43.0561 56.0181 43.0561H55.9109ZM12.0414 41.0792C12.0414 40.3069 12.584 39.6725 13.4706 39.6725C14.3178 39.6725 14.8897 40.2795 14.8897 41.0792C14.8897 41.8788 14.3178 42.4859 13.4706 42.4859C12.584 42.4859 12.0414 41.8515 12.0414 41.0792ZM15.8554 38.8823V41.0792V43.2761H14.8311V42.7426C14.5062 43.1382 14.0133 43.3866 13.3432 43.3866C12.0223 43.3866 10.9868 42.4217 10.9868 41.0792C10.9868 39.7377 12.0223 38.7718 13.3432 38.7718C14.0133 38.7718 14.5062 39.0201 14.8311 39.4157V38.8823H15.8554ZM50.4683 41.0792C50.4683 40.3069 51.0109 39.6725 51.8975 39.6725C52.7458 39.6725 53.3166 40.2795 53.3166 41.0792C53.3166 41.8788 52.7458 42.4859 51.8975 42.4859C51.0109 42.4859 50.4683 41.8515 50.4683 41.0792ZM54.2835 37.1178V41.0792V43.2761H53.2581V42.7426C52.9332 43.1382 52.4402 43.3866 51.7702 43.3866C50.4492 43.3866 49.4136 42.4217 49.4136 41.0792C49.4136 39.7377 50.4492 38.7718 51.7702 38.7718C52.4402 38.7718 52.9332 39.0201 53.2581 39.4157V37.1178H54.2835ZM28.5694 39.6271C29.2293 39.6271 29.6535 40.0133 29.7618 40.6929L27.3173 40.6929C27.4267 40.0585 27.8396 39.6271 28.5694 39.6271ZM26.2432 41.0792C26.2432 39.7093 27.2089 38.7718 28.5896 38.7718C29.9094 38.7718 30.8164 39.7093 30.8266 41.0792C30.8266 41.2075 30.8164 41.3275 30.8062 41.4464L27.3081 41.4464C27.4559 42.2376 28.0572 42.5227 28.7171 42.5227C29.1897 42.5227 29.6929 42.3565 30.0877 42.0629L30.5897 42.771C30.0177 43.2214 29.368 43.3866 28.6584 43.3866C27.2483 43.3866 26.2432 42.4764 26.2432 41.0792ZM40.9577 41.0792C40.9577 40.3069 41.5003 39.6725 42.3869 39.6725C43.2341 39.6725 43.806 40.2795 43.806 41.0792C43.806 41.8788 43.2341 42.4859 42.3869 42.4859C41.5003 42.4859 40.9577 41.8515 40.9577 41.0792ZM44.7717 38.8823V41.0792V43.2761H43.7474V42.7426C43.4214 43.1382 42.9296 43.3866 42.2595 43.3866C40.9386 43.3866 39.903 42.4217 39.903 41.0792C39.903 39.7377 40.9386 38.7718 42.2595 38.7718C42.9296 38.7718 43.4214 39.0201 43.7474 39.4157V38.8823H44.7717ZM35.1729 41.0792C35.1729 42.4123 36.1679 43.3866 37.6863 43.3866C38.3958 43.3866 38.8685 43.2393 39.3806 42.8626L38.8888 42.0903C38.5041 42.3481 38.1003 42.4859 37.6558 42.4859C36.838 42.4764 36.2367 41.9251 36.2367 41.0792C36.2367 40.2332 36.838 39.6819 37.6558 39.6724C38.1003 39.6724 38.5041 39.8103 38.8888 40.068L39.3806 39.2958C38.8685 38.9191 38.3958 38.7718 37.6863 38.7718C36.1679 38.7718 35.1729 39.7461 35.1729 41.0792ZM47.1374 39.4157C47.4036 39.0296 47.7882 38.7718 48.3793 38.7718C48.5869 38.7718 48.8824 38.8086 49.1092 38.8917L48.7933 39.7924C48.5767 39.7093 48.3602 39.6819 48.1526 39.6819C47.4825 39.6819 47.1475 40.0859 47.1475 40.813V43.2761H46.1221V38.8823H47.1374V39.4157ZM20.9214 39.2316C20.4284 38.9286 19.7493 38.7718 19.0003 38.7718C17.8068 38.7718 17.0386 39.3052 17.0386 40.1785C17.0386 40.895 17.6105 41.337 18.6641 41.4748L19.148 41.539C19.7098 41.6126 19.9749 41.7504 19.9749 41.9988C19.9749 42.3386 19.6004 42.5322 18.901 42.5322C18.1915 42.5322 17.6793 42.3207 17.3341 42.0724L16.8513 42.8163C17.4131 43.2024 18.1226 43.3866 18.8908 43.3866C20.2513 43.3866 21.0398 42.7889 21.0398 41.9525C21.0398 41.1802 20.4194 40.7762 19.394 40.6383L18.9112 40.5731C18.4678 40.5184 18.1125 40.4363 18.1125 40.1417C18.1125 39.8197 18.4475 39.6272 19.0093 39.6272C19.6105 39.6272 20.1926 39.8387 20.478 40.0039L20.9214 39.2316ZM32.8967 39.4157C33.1618 39.0296 33.5464 38.7718 34.1375 38.7718C34.3451 38.7718 34.6406 38.8086 34.8674 38.8917L34.5515 39.7924C34.3349 39.7093 34.1184 39.6819 33.9108 39.6819C33.2407 39.6819 32.9057 40.0859 32.9057 40.813V43.2761H31.8814V38.8823H32.8967V39.4157ZM25.3962 38.8823H23.7211V37.5492H22.6855V38.8823H21.73V39.7556H22.6855V41.7599C22.6855 42.7795 23.1097 43.3866 24.3212 43.3866C24.7657 43.3866 25.2778 43.2582 25.6027 43.0467L25.3071 42.2281C25.0014 42.3933 24.6664 42.4764 24.4002 42.4764C23.888 42.4764 23.7211 42.1818 23.7211 41.741V39.7556H25.3962V38.8823ZM10.0805 40.5183V43.276H9.04492V40.8308C9.04492 40.0859 8.70989 39.6724 8.01049 39.6724C7.33028 39.6724 6.85762 40.0775 6.85762 40.8403V43.276H5.82207V40.8308C5.82207 40.0859 5.47801 39.6724 4.7978 39.6724C4.09728 39.6724 3.6438 40.0775 3.6438 40.8403L3.6438 43.276H2.60938L2.60937 38.8822H3.63478V39.4241C4.01944 38.9096 4.51127 38.7718 5.01438 38.7718C5.73408 38.7718 6.24622 39.0664 6.5711 39.5535C7.0054 38.9369 7.62583 38.7623 8.22708 38.7718C9.37092 38.7812 10.0805 39.4799 10.0805 40.5183Z" fill="#231F20"/>
</g>
<g id="Group_2">
<path id="Shape_2" fill-rule="evenodd" clip-rule="evenodd" d="M56.2308 27.1705V28H56.1456V27.1705H55.9902V27.0016H56.3862V27.1705H56.2308ZM56.9997 26.9998V27.9998H56.9145V27.2441L56.7835 27.8966H56.6944L56.5635 27.2457V27.9998H56.4775V26.9998H56.5993L56.7386 27.6867L56.8787 26.9998H56.9997Z" fill="#F79410"/>
</g>
<path id="Path" d="M36.82 30H21.688V3H36.82V30Z" fill="#FF5F00"/>
<g id="Group_3">
<path id="Path_2" d="M21.863 17.4641C21.863 11.9654 24.4902 7.06744 28.5813 3.91097C25.5896 1.6028 21.8138 0.225128 17.7103 0.225128C7.99583 0.225128 0.121094 7.94314 0.121094 17.4641C0.121094 26.985 7.99583 34.703 17.7103 34.703C21.8138 34.703 25.5896 33.3253 28.5813 31.0172C24.4902 27.8607 21.863 22.9627 21.863 17.4641Z" fill="#EB001B"/>
</g>
<g id="Group_4">
<path id="Path_3" d="M56.8197 17.4641C56.8197 26.985 48.945 34.703 39.2305 34.703C35.127 34.703 31.3513 33.3253 28.3584 31.0172C32.4507 27.8607 35.0778 22.9627 35.0778 17.4641C35.0778 11.9654 32.4507 7.06744 28.3584 3.91097C31.3513 1.6028 35.127 0.225128 39.2305 0.225128C48.945 0.225128 56.8197 7.94314 56.8197 17.4641Z" fill="#F79E1B"/>
</g>
</g>
</svg>
