<svg xmlns="http://www.w3.org/2000/svg" width="102" height="34" viewBox="0 0 102 34">
    <path fill="#4C3494" fill-rule="nonzero" d="M23.664 1.516C21.42.45 20.482.246 17.34.123 13.26 0 10.894.492 8.12 2.13 5.59 3.646 2.61 6.964 1.305 9.75.326 11.88.204 12.534.204 16.794c.04 4.22.163 4.957 1.102 7.046 2.04 4.383 6.201 7.988 10.608 9.176 6.242 1.68 12.444-.041 16.728-4.67 3.1-3.318 4.406-6.718 4.406-11.552 0-6.882-3.346-12.33-9.384-15.28zm-11.22 4.997c2.162-.983 5.998-.983 8.16 0 5.1 2.294 7.589 9.422 5.304 14.993-.898 2.048-3.386 4.71-5.304 5.571-2.04.942-5.794.983-7.874.164-2.081-.901-4.488-3.318-5.508-5.53-1.061-2.335-1.143-7.25-.204-9.463.938-2.13 3.508-4.875 5.426-5.735zM90.086.573c-2.61-.696-6.813-.696-9.343 0-3.713.984-7.589 4.015-9.629 7.497-2.61 4.506-2.896 11.552-.612 16.222 2.652 5.366 7.63 8.766 13.464 9.175C91.351 34 97.35 30.6 100.49 24.21c1.224-2.581 1.306-2.95 1.306-7.415 0-4.506-.082-4.875-1.306-7.414-2.162-4.424-5.956-7.62-10.404-8.808zm-8.69 5.94c2.162-.983 5.998-1.024 8.16 0 1.918.86 4.406 3.523 5.304 5.571 2.366 5.735-.286 12.904-5.59 15.157-2.08.86-5.834.778-7.874-.164-3.917-1.802-6.08-5.53-6.08-10.282s2.163-8.48 6.08-10.282zm-33.742-2.95l-.122 2.786-1.346.123c-1.102.123-1.306.287-1.102.82 1.55 4.3 6.977 16.385 7.18 16.18.205-.245 4.978-11.756 6.774-16.385.122-.287-.327-.533-1.184-.615l-1.346-.123-.122-2.785-.123-2.745H66.912v1.557c0 1.065-1.55 5.243-5.14 13.64-2.816 6.637-5.59 13.314-6.202 14.83l-1.102 2.826-1.958-.205c-1.51-.122-2.285-.45-3.142-1.351-.775-.779-2.978-5.367-6.365-13.273A5033.917 5033.917 0 0 0 37.74 6.636c-.082-.082-.816-.164-1.673-.205l-1.591-.123-.122-2.744L34.23.819h13.546l-.123 2.745z"/>
</svg>
