<svg width="85" height="28" viewBox="0 0 85 28" fill="none" xmlns="http://www.w3.org/2000/svg">
<g id="visa_creditcard_logo">
<path id="polygon9" d="M36.4938 28H29.8262L33.9966 1H40.6639L36.4938 28Z" fill="#00579F"/>
<path id="path11" d="M62.3396 1.15396C60.9791 0.60553 58.8213 0 56.1532 0C49.3418 0 44.5453 3.69067 44.5159 8.96721C44.4593 12.8602 47.9501 15.0225 50.5609 16.3206C53.2293 17.647 54.1364 18.5127 54.1364 19.695C54.1093 21.5109 51.9802 22.3479 49.9943 22.3479C47.2406 22.3479 45.7651 21.9163 43.5228 20.9061L42.6146 20.473L41.6494 26.5575C43.2671 27.3063 46.2475 27.9709 49.3418 28C56.579 28 61.2906 24.3664 61.3465 18.7434C61.374 15.6579 59.5308 13.2937 55.5569 11.3617C53.1445 10.1215 51.6671 9.2853 51.6671 8.01637C51.6954 6.8628 52.9167 5.68125 55.6399 5.68125C57.8821 5.62338 59.5296 6.17104 60.7777 6.71908L61.4015 7.0069L62.3396 1.15396Z" fill="#00579F"/>
<path id="path13" fill-rule="evenodd" clip-rule="evenodd" d="M74.153 1H79.4625L85.0003 28H78.6446C78.6446 28 78.0226 24.8977 77.8255 23.9498H69.0123C68.7574 24.6675 67.5717 28 67.5717 28H60.3691L70.5652 3.24023C71.2716 1.4879 72.5156 1 74.153 1ZM73.7293 10.8806C73.7293 10.8806 71.554 16.884 70.9887 18.4351H76.6943C76.412 17.0852 75.1121 10.6222 75.1121 10.6222L74.6324 8.29565C74.4304 8.89475 74.1382 9.71842 73.9412 10.274C73.8076 10.6505 73.7177 10.9039 73.7293 10.8806Z" fill="#00579F"/>
<path id="path15" d="M24.4107 1L17.5701 19.431L16.8226 15.6929C15.558 11.3798 11.5917 6.69358 7.16553 4.36349L13.4312 28H20.8176L31.7967 1H24.4107V1Z" fill="#00579F"/>
<path id="path17" d="M11.4826 0H0.3826L0.269043 0.557492C8.92771 2.84715 14.6622 8.36628 17.0182 15L14.6052 2.31931C14.2079 0.557102 12.9871 0.0581289 11.4826 0Z" fill="#FAA61A"/>
</g>
</svg>
